<?xml version="1.0" encoding="UTF-8" standalone="no"?>
<svg
   xmlns:dc="http://purl.org/dc/elements/1.1/"
   xmlns:cc="http://creativecommons.org/ns#"
   xmlns:rdf="http://www.w3.org/1999/02/22-rdf-syntax-ns#"
   xmlns:svg="http://www.w3.org/2000/svg"
   xmlns="http://www.w3.org/2000/svg"
   xmlns:sodipodi="http://sodipodi.sourceforge.net/DTD/sodipodi-0.dtd"
   xmlns:inkscape="http://www.inkscape.org/namespaces/inkscape"
   width="202.42773"
   height="27.015631"
   viewBox="0 0 202.42773 27.015631"
   version="1.1"
   id="svg10"
   sodipodi:docname="brand.svg"
   inkscape:version="0.92.3 (unknown)">
  <sodipodi:namedview
     pagecolor="#ffffff"
     bordercolor="#666666"
     borderopacity="1"
     objecttolerance="10"
     gridtolerance="10"
     guidetolerance="10"
     inkscape:pageopacity="0"
     inkscape:pageshadow="2"
     inkscape:window-width="1321"
     inkscape:window-height="744"
     id="namedview9"
     showgrid="false"
     inkscape:zoom="1.4362745"
     inkscape:cx="-22.908281"
     inkscape:cy="78.5"
     inkscape:window-x="45"
     inkscape:window-y="24"
     inkscape:window-maximized="1"
     inkscape:current-layer="g8" />
  <metadata
     id="metadata16">
    <rdf:RDF>
      <cc:Work
         rdf:about="">
        <dc:format>image/svg+xml</dc:format>
        <dc:type
           rdf:resource="http://purl.org/dc/dcmitype/StillImage" />
        <dc:title />
      </cc:Work>
    </rdf:RDF>
  </metadata>
  <defs
     id="defs14" />
  <g
     style="fill:none;fill-rule:evenodd"
     id="g8"
     transform="translate(-0.62841749,-129.98437)">
    <path
       style="fill:#4b4b4b"
       d="m 23.209472,146.9248 3.098633,-16.94043 h 6.457031 L 27.031738,157 H 20.277832 L 16.659667,141.59961 13.115722,157 H 6.3803706 L 0.62841749,129.98437 H 7.1040034 l 3.0986326,16.94043 3.710938,-16.94043 h 5.529297 z m 38.444532,5.02832 H 52.729199 L 51.170605,157 h -6.958008 l 9.908204,-27.01563 h 6.123046 L 70.226269,157 h -6.995117 z m -7.366211,-5.02832 h 5.807617 l -2.913086,-9.37011 z m 36.217969,5.06543 H 101.84268 V 157 H 83.993066 v -27.01563 h 6.512696 z m 32.395708,0 h 11.33691 V 157 h -17.84961 v -27.01563 h 6.51269 z m 42.63789,-6.43847 h -10.24219 v 6.43847 h 12.09765 V 157 h -18.61035 v -27.01563 h 18.64746 v 5.02833 h -12.13476 v 5.69628 h 10.24219 z m 37.51679,-10.53906 h -8.1084 V 157 h -6.51269 v -21.9873 h -7.95996 v -5.02833 h 22.58105 z"
       id="path2"
       inkscape:connector-curvature="0" />
  </g>
</svg>
